/* XPM */
static char *bitcoin32[] = {
/* columns rows colors chars-per-pixel */
"32 32 3 1 ",
"  c black",
". c #F6F6C7C71616",
"X c None",
/* pixels */
"XXXXXXXXXXXXXXXXXXXXXXXXXXXXXXXX",
"XXXXXXXXXX    XXXXXXXXXXXXXXXXXX",
"XXXXXXXXX       XXXXXX...XXXXXXX",
"XXXXXXXXX       XXXX.......XXXXX",
"XXXXXXXX        XXXX.......XXXXX",
"XXXXXXXX         XX.........XXXX",
"XXXXXXXXX        XX.........XXXX",
"XXXXXXXXX        XXX........XXXX",
"XXXXXXXXXX       XXX.......XXXXX",
"XXXXXXXXXXXX      XXX.....XXXXXX",
"XXXXXXXXXXXXX     XXXXXXXXXXXXXX",
"XXXXXXXXXXXXXX     XXXXXXXXXXXXX",
"XXXXXX....XXXX       XXXXXXXXXXX",
"XXXXX.......XX        XXXXXXXXXX",
"XXXXX.......XXX       XXXXXXXXXX",
"XXXX.........XX        XXXXXXXXX",
"XXXX.........XX        XXXXXXXXX",
"XXXX........XXX       XXXXXXXXXX",
"XXXXX.......XX        XXXXXXXXXX",
"XXXXXX.....XXX       XXXXXXXXXXX",
"XXXXXXXXXXXXXX     XXXXXXXXXXXXX",
"XXXXXXXXXXXXX     XXXXXXXXXXXXXX",
"XXXXXXXXXXXX      XXXX...XXXXXXX",
"XXXXXXXXXXX      XXX.......XXXXX",
"XXXXXXXXX        XXX.......XXXXX",
"XXXXXXXXX        XX.........XXXX",
"XXXXXXXX         XX.........XXXX",
"XXXXXXXX         XXX........XXXX",
"XXXXXXXXX       XXXX.......XXXXX",
"XXXXXXXXX       XXXXX.....XXXXXX",
"XXXXXXXXXX     XXXXXXXXXXXXXXXXX",
"XXXXXXXXXXXXXXXXXXXXXXXXXXXXXXXX"
};
