/* XPM */
static char *bitcoin16[] = {
/* columns rows colors chars-per-pixel */
"16 16 6 1 ",
"  c black",
". c #F6F7C7C81616",
"X c #F86EC911163B",
"o c #F8F7C96E1645",
"O c #F97FC9DE1652",
"+ c None",
/* pixels */
"++++++ +++++++++",
"++++    +++..+++",
"++++    ++....++",
"+++++   ++....++",
"++++++   +X..+++",
"+++++++  +++++++",
"+++..O+    +++++",
"++....+    +++++",
"++....+    +++++",
"+++..O+    +++++",
"+++++++  +++++++",
"++++++   ++..+++",
"+++++    +....++",
"++++    ++....++",
"++++    ++...+++",
"+++++  +++++++++"
};
