/* XPM */
static char *bitcoin64[] = {
/* columns rows colors chars-per-pixel */
"64 64 3 1 ",
"  c black",
". c #F6F6C7C71616",
"X c None",
/* pixels */
"XXXXXXXXXXXXXXXXXXXXXXXXXXXXXXXXXXXXXXXXXXXXXXXXXXXXXXXXXXXXXXXX",
"XXXXXXXXXXXXXXXXXXXXXXXXXXXXXXXXXXXXXXXXXXXXXXXXXXXXXXXXXXXXXXXX",
"XXXXXXXXXXXXXXXXXXXXXX      XXXXXXXXXXXXXXXXXXXXXXXXXXXXXXXXXXXX",
"XXXXXXXXXXXXXXXXXXXX          XXXXXXXXXXXXXXXXXXXXXXXXXXXXXXXXXX",
"XXXXXXXXXXXXXXXXXXX            XXXXXXXXXXXXXX....XXXXXXXXXXXXXXX",
"XXXXXXXXXXXXXXXXXX              XXXXXXXXXXX.........XXXXXXXXXXXX",
"XXXXXXXXXXXXXXXXX               XXXXXXXXX............XXXXXXXXXXX",
"XXXXXXXXXXXXXXXXX                XXXXXXX..............XXXXXXXXXX",
"XXXXXXXXXXXXXXXXX                XXXXXXX..............XXXXXXXXXX",
"XXXXXXXXXXXXXXXXX                XXXXXX................XXXXXXXXX",
"XXXXXXXXXXXXXXXXX                XXXXXX................XXXXXXXXX",
"XXXXXXXXXXXXXXXXX                XXXXXX................XXXXXXXXX",
"XXXXXXXXXXXXXXXXX                XXXXXX................XXXXXXXXX",
"XXXXXXXXXXXXXXXXXX               XXXXXX................XXXXXXXXX",
"XXXXXXXXXXXXXXXXXX                XXXXX................XXXXXXXXX",
"XXXXXXXXXXXXXXXXXXX               XXXXX................XXXXXXXXX",
"XXXXXXXXXXXXXXXXXXXX              XXXXXX..............XXXXXXXXXX",
"XXXXXXXXXXXXXXXXXXXXXX             XXXXX..............XXXXXXXXXX",
"XXXXXXXXXXXXXXXXXXXXXXX            XXXXXX............XXXXXXXXXXX",
"XXXXXXXXXXXXXXXXXXXXXXXX            XXXXXX..........XXXXXXXXXXXX",
"XXXXXXXXXXXXXXXXXXXXXXXXX           XXXXXXXX......XXXXXXXXXXXXXX",
"XXXXXXXXXXXXXXXXXXXXXXXXXX           XXXXXXXXXXXXXXXXXXXXXXXXXXX",
"XXXXXXXXXXXXXXXXXXXXXXXXXXX           XXXXXXXXXXXXXXXXXXXXXXXXXX",
"XXXXXXXXXXXXXXXXXXXXXXXXXXX            XXXXXXXXXXXXXXXXXXXXXXXXX",
"XXXXXXXXXXXXX.......XXXXXXXX            XXXXXXXXXXXXXXXXXXXXXXXX",
"XXXXXXXXXXXX..........XXXXXX              XXXXXXXXXXXXXXXXXXXXXX",
"XXXXXXXXXXX............XXXXXX              XXXXXXXXXXXXXXXXXXXXX",
"XXXXXXXXXX..............XXXXX               XXXXXXXXXXXXXXXXXXXX",
"XXXXXXXXX...............XXXXX                XXXXXXXXXXXXXXXXXXX",
"XXXXXXXXX................XXXX                XXXXXXXXXXXXXXXXXXX",
"XXXXXXXXX................XXXX                XXXXXXXXXXXXXXXXXXX",
"XXXXXXXX.................XXXXX               XXXXXXXXXXXXXXXXXXX",
"XXXXXXXX.................XXXXX               XXXXXXXXXXXXXXXXXXX",
"XXXXXXXXX................XXXX                XXXXXXXXXXXXXXXXXXX",
"XXXXXXXXX................XXXX                XXXXXXXXXXXXXXXXXXX",
"XXXXXXXXX...............XXXXX                XXXXXXXXXXXXXXXXXXX",
"XXXXXXXXXX..............XXXXX               XXXXXXXXXXXXXXXXXXXX",
"XXXXXXXXXX.............XXXXXX              XXXXXXXXXXXXXXXXXXXXX",
"XXXXXXXXXXX...........XXXXXX              XXXXXXXXXXXXXXXXXXXXXX",
"XXXXXXXXXXXXX........XXXXXXX             XXXXXXXXXXXXXXXXXXXXXXX",
"XXXXXXXXXXXXXXX...XXXXXXXXX            XXXXXXXXXXXXXXXXXXXXXXXXX",
"XXXXXXXXXXXXXXXXXXXXXXXXXXX           XXXXXXXXXXXXXXXXXXXXXXXXXX",
"XXXXXXXXXXXXXXXXXXXXXXXXXX           XXXXXXXXXXXXXXXXXXXXXXXXXXX",
"XXXXXXXXXXXXXXXXXXXXXXXXX           XXXXXXXXXXXXXXXXXXXXXXXXXXXX",
"XXXXXXXXXXXXXXXXXXXXXXXX            XXXXXXXX......XXXXXXXXXXXXXX",
"XXXXXXXXXXXXXXXXXXXXXXX            XXXXXXX..........XXXXXXXXXXXX",
"XXXXXXXXXXXXXXXXXXXXXX             XXXXXX............XXXXXXXXXXX",
"XXXXXXXXXXXXXXXXXXXXX              XXXXX..............XXXXXXXXXX",
"XXXXXXXXXXXXXXXXXXX               XXXXXX...............XXXXXXXXX",
"XXXXXXXXXXXXXXXXXXX               XXXXX................XXXXXXXXX",
"XXXXXXXXXXXXXXXXXX                XXXXX................XXXXXXXXX",
"XXXXXXXXXXXXXXXXX                 XXXXX................XXXXXXXXX",
"XXXXXXXXXXXXXXXXX                 XXXXX................XXXXXXXXX",
"XXXXXXXXXXXXXXXXX                XXXXXX................XXXXXXXXX",
"XXXXXXXXXXXXXXXXX                XXXXXX................XXXXXXXXX",
"XXXXXXXXXXXXXXXXX                XXXXXX................XXXXXXXXX",
"XXXXXXXXXXXXXXXXX                XXXXXXX..............XXXXXXXXXX",
"XXXXXXXXXXXXXXXXX               XXXXXXXX..............XXXXXXXXXX",
"XXXXXXXXXXXXXXXXXX              XXXXXXXXX............XXXXXXXXXXX",
"XXXXXXXXXXXXXXXXXX             XXXXXXXXXXXX.........XXXXXXXXXXXX",
"XXXXXXXXXXXXXXXXXXX           XXXXXXXXXXXXXXX....XXXXXXXXXXXXXXX",
"XXXXXXXXXXXXXXXXXXXXX        XXXXXXXXXXXXXXXXXXXXXXXXXXXXXXXXXXX",
"XXXXXXXXXXXXXXXXXXXXXXX   XXXXXXXXXXXXXXXXXXXXXXXXXXXXXXXXXXXXXX",
"XXXXXXXXXXXXXXXXXXXXXXXXXXXXXXXXXXXXXXXXXXXXXXXXXXXXXXXXXXXXXXXX"
};
